<mxfile host="app.diagrams.net" modified="2022-12-17T08:10:15.033Z" agent="5.0 (Windows NT 10.0; Win64; x64) AppleWebKit/537.36 (KHTML, like Gecko) Chrome/108.0.0.0 Safari/537.36 Edg/108.0.1462.46" etag="TUPq_GKoYqoAfGpBXpRK" version="20.5.3" type="github">
  <diagram id="ENvG7SyA4WVKRr-n-xcm" name="第 1 页">
    <mxGraphModel dx="1038" dy="634" grid="1" gridSize="10" guides="1" tooltips="1" connect="1" arrows="1" fold="1" page="1" pageScale="1" pageWidth="827" pageHeight="1169" math="0" shadow="0">
      <root>
        <mxCell id="0" />
        <mxCell id="1" parent="0" />
        <mxCell id="4GQEQzSNqyPjN35VxPjc-1" value="" style="rounded=0;whiteSpace=wrap;html=1;" vertex="1" parent="1">
          <mxGeometry x="200" y="220" width="60" height="30" as="geometry" />
        </mxCell>
        <mxCell id="4GQEQzSNqyPjN35VxPjc-2" style="edgeStyle=orthogonalEdgeStyle;rounded=0;orthogonalLoop=1;jettySize=auto;html=1;exitX=0.5;exitY=1;exitDx=0;exitDy=0;" edge="1" parent="1" source="4GQEQzSNqyPjN35VxPjc-1" target="4GQEQzSNqyPjN35VxPjc-1">
          <mxGeometry relative="1" as="geometry" />
        </mxCell>
        <mxCell id="4GQEQzSNqyPjN35VxPjc-3" value="5" style="rounded=0;whiteSpace=wrap;html=1;" vertex="1" parent="1">
          <mxGeometry x="260" y="220" width="60" height="30" as="geometry" />
        </mxCell>
        <mxCell id="4GQEQzSNqyPjN35VxPjc-5" value="" style="rounded=0;whiteSpace=wrap;html=1;" vertex="1" parent="1">
          <mxGeometry x="320" y="220" width="60" height="30" as="geometry" />
        </mxCell>
        <mxCell id="4GQEQzSNqyPjN35VxPjc-12" style="edgeStyle=orthogonalEdgeStyle;rounded=0;orthogonalLoop=1;jettySize=auto;html=1;exitX=0.5;exitY=0;exitDx=0;exitDy=0;entryX=0.5;entryY=0;entryDx=0;entryDy=0;" edge="1" parent="1" source="4GQEQzSNqyPjN35VxPjc-6" target="4GQEQzSNqyPjN35VxPjc-3">
          <mxGeometry relative="1" as="geometry" />
        </mxCell>
        <mxCell id="4GQEQzSNqyPjN35VxPjc-6" value="地址" style="rounded=0;whiteSpace=wrap;html=1;" vertex="1" parent="1">
          <mxGeometry x="380" y="220" width="60" height="30" as="geometry" />
        </mxCell>
        <mxCell id="4GQEQzSNqyPjN35VxPjc-7" value="" style="rounded=0;whiteSpace=wrap;html=1;" vertex="1" parent="1">
          <mxGeometry x="440" y="220" width="60" height="30" as="geometry" />
        </mxCell>
        <mxCell id="4GQEQzSNqyPjN35VxPjc-9" value="i32" style="text;html=1;strokeColor=#d79b00;fillColor=#ffe6cc;align=center;verticalAlign=middle;whiteSpace=wrap;rounded=0;" vertex="1" parent="1">
          <mxGeometry x="270" y="260" width="40" height="20" as="geometry" />
        </mxCell>
        <mxCell id="4GQEQzSNqyPjN35VxPjc-11" value="a" style="text;html=1;strokeColor=#82b366;fillColor=#d5e8d4;align=center;verticalAlign=middle;whiteSpace=wrap;rounded=0;" vertex="1" parent="1">
          <mxGeometry x="270" y="170" width="40" height="20" as="geometry" />
        </mxCell>
        <mxCell id="4GQEQzSNqyPjN35VxPjc-13" value="b = &amp;amp;a" style="text;html=1;strokeColor=#82b366;fillColor=#d5e8d4;align=center;verticalAlign=middle;whiteSpace=wrap;rounded=0;" vertex="1" parent="1">
          <mxGeometry x="390" y="170" width="40" height="20" as="geometry" />
        </mxCell>
        <mxCell id="4GQEQzSNqyPjN35VxPjc-15" value="&amp;amp;i32" style="text;html=1;strokeColor=#d79b00;fillColor=#ffe6cc;align=center;verticalAlign=middle;whiteSpace=wrap;rounded=0;" vertex="1" parent="1">
          <mxGeometry x="394" y="260" width="40" height="20" as="geometry" />
        </mxCell>
        <mxCell id="4GQEQzSNqyPjN35VxPjc-16" value="常见普通&lt;br&gt;引用" style="text;html=1;strokeColor=#b85450;fillColor=#f8cecc;align=center;verticalAlign=middle;whiteSpace=wrap;rounded=0;" vertex="1" parent="1">
          <mxGeometry x="90" y="220" width="70" height="30" as="geometry" />
        </mxCell>
        <mxCell id="4GQEQzSNqyPjN35VxPjc-17" value="" style="rounded=0;whiteSpace=wrap;html=1;" vertex="1" parent="1">
          <mxGeometry x="200" y="360" width="60" height="30" as="geometry" />
        </mxCell>
        <mxCell id="4GQEQzSNqyPjN35VxPjc-18" style="edgeStyle=orthogonalEdgeStyle;rounded=0;orthogonalLoop=1;jettySize=auto;html=1;exitX=0.5;exitY=1;exitDx=0;exitDy=0;" edge="1" parent="1" source="4GQEQzSNqyPjN35VxPjc-17" target="4GQEQzSNqyPjN35VxPjc-17">
          <mxGeometry relative="1" as="geometry" />
        </mxCell>
        <mxCell id="4GQEQzSNqyPjN35VxPjc-19" value="5" style="rounded=0;whiteSpace=wrap;html=1;" vertex="1" parent="1">
          <mxGeometry x="260" y="360" width="60" height="30" as="geometry" />
        </mxCell>
        <mxCell id="4GQEQzSNqyPjN35VxPjc-20" value="" style="rounded=0;whiteSpace=wrap;html=1;" vertex="1" parent="1">
          <mxGeometry x="320" y="360" width="60" height="30" as="geometry" />
        </mxCell>
        <mxCell id="4GQEQzSNqyPjN35VxPjc-22" value="地址" style="rounded=0;whiteSpace=wrap;html=1;" vertex="1" parent="1">
          <mxGeometry x="380" y="360" width="60" height="30" as="geometry" />
        </mxCell>
        <mxCell id="4GQEQzSNqyPjN35VxPjc-23" value="" style="rounded=0;whiteSpace=wrap;html=1;" vertex="1" parent="1">
          <mxGeometry x="440" y="360" width="60" height="30" as="geometry" />
        </mxCell>
        <mxCell id="4GQEQzSNqyPjN35VxPjc-28" value="胖指针" style="text;html=1;strokeColor=#b85450;fillColor=#f8cecc;align=center;verticalAlign=middle;whiteSpace=wrap;rounded=0;" vertex="1" parent="1">
          <mxGeometry x="90" y="360" width="70" height="30" as="geometry" />
        </mxCell>
      </root>
    </mxGraphModel>
  </diagram>
</mxfile>
